<svg width="111.45996398925782px" height="85.62001953125px" xmlns="http://www.w3.org/2000/svg" viewBox="194.2700180053711 32.189990234375 111.45996398925782 85.62001953125" style="background: rgba(0, 0, 0, 0);" preserveAspectRatio="xMidYMid"><defs><linearGradient id="editing-gradient-gradient" x1="0" x2="1" y1="0.5" y2="0.5" gradientUnits="objectBoundingBox"><stop offset="0" stop-color="#ffffff"></stop><stop offset="1" stop-color="#ffffff"></stop></linearGradient></defs><g><g transform="translate(216.880002617836, 92.06000137329102)"><path d="M4.48 7L5.60 3.52L5.60 3.52Q6.20 3.76 6.88 4.02L6.88 4.02L6.88 4.02Q7.56 4.28 8.32 4.52L8.32 4.52L8.32 4.52Q9.08 4.76 9.86 4.92L9.86 4.92L9.86 4.92Q10.64 5.08 11.40 5.08L11.40 5.08L11.40 5.08Q13.64 5.08 14.64 3.74L14.64 3.74L14.64 3.74Q15.64 2.40 15.64 0.28L15.64 0.28L15.64 0.28Q15.64-1.80 14.76-3.92L14.76-3.92L14.76-3.92Q14.08-1.88 12.62-0.82L12.62-0.82L12.62-0.82Q11.16 0.24 8.76 0.24L8.76 0.24L8.76 0.24Q6.88 0.24 5.50-0.46L5.50-0.46L5.50-0.46Q4.12-1.16 3.20-2.46L3.20-2.46L3.20-2.46Q2.28-3.76 1.84-5.60L1.84-5.60L1.84-5.60Q1.40-7.44 1.40-9.68L1.40-9.68L1.40-9.68Q1.40-11.96 2.10-13.90L2.10-13.90L2.10-13.90Q2.80-15.84 4.06-17.24L4.06-17.24L4.06-17.24Q5.32-18.64 7.08-19.44L7.08-19.44L7.08-19.44Q8.84-20.24 10.96-20.24L10.96-20.24L10.96-20.24Q11.92-20.24 13.02-20.12L13.02-20.12L13.02-20.12Q14.12-20 15.18-19.82L15.18-19.82L15.18-19.82Q16.24-19.64 17.18-19.44L17.18-19.44L17.18-19.44Q18.12-19.24 18.80-19.08L18.80-19.08L18.60-8.08L18.60-8.08Q18.56-6.88 18.74-5.88L18.74-5.88L18.74-5.88Q18.92-4.88 19.16-3.90L19.16-3.90L19.16-3.90Q19.40-2.92 19.60-1.92L19.60-1.92L19.60-1.92Q19.80-0.92 19.80 0.28L19.80 0.28L19.80 0.28Q19.80 4.52 17.64 6.60L17.64 6.60L17.64 6.60Q15.48 8.68 11.80 8.68L11.80 8.68L11.80 8.68Q10.60 8.68 9.40 8.46L9.40 8.46L9.40 8.46Q8.20 8.24 7.18 7.96L7.18 7.96L7.18 7.96Q6.16 7.68 5.44 7.40L5.44 7.40L5.44 7.40Q4.72 7.12 4.48 7L4.48 7ZM9.52-2.96L9.52-2.96Q10.48-2.96 11.30-3.60L11.30-3.60L11.30-3.60Q12.12-4.24 12.76-5.30L12.76-5.30L12.76-5.30Q13.40-6.36 13.76-7.72L13.76-7.72L13.76-7.72Q14.12-9.08 14.12-10.52L14.12-10.52L14.12-16.60L14.12-16.60Q13.72-16.72 12.92-16.88L12.92-16.88L12.92-16.88Q12.12-17.04 11.48-17.04L11.48-17.04L11.48-17.04Q9.96-17.04 8.98-16.52L8.98-16.52L8.98-16.52Q8-16 7.40-15.08L7.40-15.08L7.40-15.08Q6.80-14.16 6.56-12.88L6.56-12.88L6.56-12.88Q6.32-11.60 6.32-10.08L6.32-10.08L6.32-10.08Q6.32-8.68 6.40-7.40L6.40-7.40L6.40-7.40Q6.48-6.12 6.82-5.12L6.82-5.12L6.82-5.12Q7.16-4.12 7.80-3.54L7.80-3.54L7.80-3.54Q8.44-2.96 9.52-2.96L9.52-2.96ZM20.84-16.68L20.84-19.92L24.44-19.92L25.24-24.60L29-25.44L29-19.92L33.92-19.92L33.36-16.68L29-16.68L29-4.84L29-4.84Q29-3.80 29.56-3.50L29.56-3.50L29.56-3.50Q30.12-3.20 30.80-3.20L30.80-3.20L30.80-3.20Q31.36-3.20 31.92-3.28L31.92-3.28L31.92-3.28Q32.48-3.36 32.92-3.48L32.92-3.48L32.92-3.48Q33.44-3.60 33.92-3.76L33.92-3.76L34.68-0.76L34.32-0.64L34.32-0.64Q33.96-0.48 33.26-0.30L33.26-0.30L33.26-0.30Q32.56-0.12 31.62 0.02L31.62 0.02L31.62 0.02Q30.68 0.16 29.56 0.16L29.56 0.16L29.56 0.16Q28.44 0.16 27.50-0.08L27.50-0.08L27.50-0.08Q26.56-0.32 25.88-0.86L25.88-0.86L25.88-0.86Q25.20-1.40 24.82-2.24L24.82-2.24L24.82-2.24Q24.44-3.08 24.44-4.32L24.44-4.32L24.44-16.68L20.84-16.68ZM64.84 0L60.32 0L60.32-13.04L60.32-13.04Q60.32-14.72 59.80-15.70L59.80-15.70L59.80-15.70Q59.28-16.68 58-16.68L58-16.68L58-16.68Q57.24-16.68 56.46-16.26L56.46-16.26L56.46-16.26Q55.68-15.84 55.04-15.04L55.04-15.04L55.04-15.04Q54.40-14.24 54-13.12L54-13.12L54-13.12Q53.60-12 53.60-10.64L53.60-10.64L53.60 0L49.08 0L49.08-13.04L49.08-13.04Q49.08-14.72 48.56-15.70L48.56-15.70L48.56-15.70Q48.04-16.68 46.76-16.68L46.76-16.68L46.76-16.68Q45.96-16.68 45.18-16.22L45.18-16.22L45.18-16.22Q44.40-15.76 43.78-14.88L43.78-14.88L43.78-14.88Q43.16-14 42.78-12.74L42.78-12.74L42.78-12.74Q42.40-11.48 42.40-9.92L42.40-9.92L42.40 0L37.84 0L37.84-10.08L37.84-10.08Q37.84-12.48 37.52-14.10L37.52-14.10L37.52-14.10Q37.20-15.72 36.84-16.72L36.84-16.72L36.84-16.72Q36.40-17.88 35.88-18.60L35.88-18.60L39.48-20.04L39.48-20.04Q39.88-19.60 40.28-18.96L40.28-18.96L40.28-18.96Q40.60-18.40 40.92-17.58L40.92-17.58L40.92-17.58Q41.24-16.76 41.44-15.72L41.44-15.72L41.44-15.72Q42.44-18.12 44.26-19.18L44.26-19.18L44.26-19.18Q46.08-20.24 48.12-20.24L48.12-20.24L48.12-20.24Q50.16-20.24 51.30-19.20L51.30-19.20L51.30-19.20Q52.44-18.16 53-16.52L53-16.52L53-16.52Q54.08-18.52 55.78-19.38L55.78-19.38L55.78-19.38Q57.48-20.24 59.36-20.24L59.36-20.24L59.36-20.24Q60.92-20.24 61.98-19.74L61.98-19.74L61.98-19.74Q63.04-19.24 63.66-18.34L63.66-18.34L63.66-18.34Q64.28-17.44 64.56-16.18L64.56-16.18L64.56-16.18Q64.84-14.92 64.84-13.36L64.84-13.36L64.84 0Z" fill="url(#editing-gradient-gradient)"></path></g></g><style>text {
  font-size: 64px;
  font-family: Arial Black;
  dominant-baseline: central;
  text-anchor: middle;
}</style></svg>